<svg width="300" height="300" viewBox="0 0 300 300" fill="none" xmlns="http://www.w3.org/2000/svg">
<path d="M118.305 53.4664C95.4316 75.0204 67.988 97.841 53.5063 126.502C44.6736 143.983 37.9247 163.989 34.2801 183.219C31.5457 197.648 26.323 233.967 51.4491 231.54C73.8795 229.373 88.2558 199.572 99.7123 183.457C108.31 171.363 119.133 156.671 123.686 142.345C125.401 136.947 124.276 133.816 118.464 137.909C108.072 145.226 99.4394 156.516 91.6816 166.426C82.7585 177.824 74.9544 189.969 68.8951 203.142C66.6143 208.1 62.7633 214.996 62.7633 220.608C62.7633 227.966 78.6124 215.589 80.1301 214.271C93.565 202.607 104.269 187.643 114.903 173.476C117.198 170.418 124.086 161.539 120.956 163.733C105.971 174.235 93.6053 195.434 88.4377 212.766C86.2969 219.947 87.0036 221.332 93.62 215.776C102.867 208.012 110.944 199.168 119.611 190.824C123.088 187.476 119.395 192.427 118.622 193.517C112.326 202.394 105.848 211.528 100.543 221.044C98.9814 223.845 93.7082 230.671 94.4112 234.392C94.6432 235.619 97.0089 234.106 98.0112 233.362C105.545 227.765 111.43 219.347 116.763 211.816C150.107 164.727 174.276 111.516 208.186 64.7544C211.865 59.6808 218.61 46.5368 225.196 44.1191C228.242 43.0012 222.517 50.0499 220.845 52.8327C215.265 62.1204 209.089 70.925 202.726 79.6863C177.899 113.875 150.678 147.901 134.367 187.338C130.39 196.954 127.971 207.144 124.437 216.925C122.024 223.605 123.182 224.046 128.907 218.47C141.657 206.051 152.828 191.975 164.393 178.466C164.577 178.251 172.319 168.524 169.971 173.159C168.386 176.287 151.23 201.241 153.989 203.023C159.008 206.265 176.254 187.131 179.149 184.17C180.753 182.528 184.245 176.909 183.896 179.179C183.157 183.987 177.352 190.434 174.955 194.468C169.971 202.856 164.025 211.182 160.081 220.133C157.96 224.945 161.741 225.322 165.619 223.381C171.511 220.432 176.574 215.411 180.968 210.667C194.092 196.501 204.506 180.107 214.357 163.574C234.368 129.989 251.751 94.7168 273.222 62.0215C276.479 57.0625 286.198 42.217 283.547 47.5253C272.852 68.9414 259.76 89.2752 248.458 110.382C236.279 133.124 223.046 156.367 215.069 181.001C211.71 191.376 208.292 203.793 210.322 214.826C212.261 225.365 230.781 226.219 239.042 223.856C240.031 223.573 237.188 222.935 236.194 222.668C227.753 220.403 219.359 220.021 210.638 220.054C189.225 220.134 169.06 220.093 147.975 216.212C129.341 212.782 111.04 208.174 93.2244 201.676C81.229 197.301 69.6181 192.137 57.1457 189.24C46.7891 186.834 36.507 185.231 25.9725 183.932C22.8522 183.547 13.6598 182.156 16.5572 183.378C50.1142 197.524 85.2541 207.473 118.661 222.034C142.159 232.276 164.559 246.585 189.236 253.997C197.701 256.54 206.415 255.938 215.148 255.938" stroke="black" stroke-linecap="round" stroke-linejoin="round"/>
</svg>
